<svg width="512" height="512" xmlns="http://www.w3.org/2000/svg"><path d="M231.333 314.5c0 7.364-5.97 13.333-13.333 13.333-7.364 0-13.333-5.969-13.333-13.333s5.969-13.333 13.333-13.333c7.363 0 13.333 5.969 13.333 13.333zm76 0c0 7.364-5.97 13.333-13.333 13.333-7.364 0-13.333-5.969-13.333-13.333s5.969-13.333 13.333-13.333c7.363 0 13.333 5.969 13.333 13.333zM197.812 92.17a7.5 7.5 0 0 0-7.5 7.5v10.531a7.5 7.5 0 0 0 15 0V99.67a7.5 7.5 0 0 0-7.5-7.5zm116.376 0a7.5 7.5 0 0 0-7.5 7.5v10.531a7.5 7.5 0 0 0 15 0V99.67a7.5 7.5 0 0 0-7.5-7.5zm-38.891 11.651a7.5 7.5 0 0 0-10.583.711c-2.105 2.408-5.281 3.79-8.714 3.79-3.433 0-6.609-1.381-8.715-3.79a7.499 7.499 0 0 0-10.583-.71 7.5 7.5 0 0 0-.71 10.583c4.954 5.667 12.247 8.917 20.008 8.917 7.762 0 15.054-3.25 20.008-8.918a7.5 7.5 0 0 0-.711-10.583z" fill="#5a5a5a"/><path d="M507.473 417.712A96.505 96.505 0 0 0 469 409.76a96.505 96.505 0 0 0-38.473 7.952c-.73.315-1.47.594-2.206.888 11.648-24.6 19.881-49.383 24.507-73.879l.001-.003c2.324-12.255 3.723-24.544 4.157-36.53.556-15.578-5.77-30.633-17.351-41.302a548.654 548.654 0 0 0-10.977-9.845L410.53 145.294c-2.946-18.164-12.603-34.293-27.19-45.418-11.543-8.803-26.989-18.402-46.487-26.086l-11.958-36.536c-4.753-14.52-16.162-26.125-30.519-31.046C282.355 2.089 269.444 0 256 0c-13.445 0-26.356 2.089-38.375 6.208-14.358 4.92-25.767 16.526-30.519 31.046L175.148 73.79c-19.498 7.684-34.944 17.283-46.487 26.086-14.588 11.124-24.245 27.254-27.191 45.418L83.342 257.042a547.825 547.825 0 0 0-10.973 9.842c-11.585 10.671-17.91 25.726-17.354 41.309.434 11.981 1.833 24.271 4.157 36.526l.001.003c4.626 24.497 12.858 49.28 24.506 73.878-.736-.293-1.476-.572-2.206-.887A96.485 96.485 0 0 0 43 409.76a96.501 96.501 0 0 0-38.473 7.952A7.502 7.502 0 0 0 0 424.598V504.5a7.5 7.5 0 0 0 7.5 7.5h497a7.5 7.5 0 0 0 7.5-7.5v-79.902a7.5 7.5 0 0 0-4.527-6.886zm-78.006-139.796c8.362 7.702 12.928 18.541 12.528 29.733a223.57 223.57 0 0 1-1.811 21.291c-9.456-7.916-19.177-15.598-29.096-22.927-3.223-2.382-8.055-1.719-10.489 1.574a7.5 7.5 0 0 0 1.574 10.489c11.769 8.697 34.822 27.84 35.084 28.066-5.299 25.679-14.769 51.722-28.191 77.526-.653.088-1.305.177-1.96.25-14.331 1.591-28.83-.739-42.076-6.391-12.09-5.151-24.881-7.768-38.031-7.768a96.465 96.465 0 0 0-37.797 7.67c-8.229 3.482-16.789 5.84-25.703 6.648V256.069c20.167-1.191 43.497 8.339 61.605 16.174 16.503 7.14 32.348 15.903 47.516 25.543 2.845 1.799 6.668 1.434 9.124-.863 3.503-3.276 2.965-9.239-1.104-11.814-17.351-10.977-35.419-20.833-54.416-28.66-19.946-8.201-41.107-14.222-62.725-15.413V186.29c.465.033 1.598.105 1.702.114 9.203.785 18.951 2.716 29.097 5.775.044.013.089.017.133.029 51.191 14.22 96.578 50.28 135.036 85.708zM234.998 172.778l-.161.027a158.999 158.999 0 0 0-11.026 2.198l1.226-16.251c.437-5.804 4.866-10.572 10.531-11.337a152.39 152.39 0 0 1 40.863 0c5.666.766 10.095 5.534 10.533 11.338l1.226 16.251a158.96 158.96 0 0 0-10.962-2.188c-14.039-2.299-28.188-2.337-42.23-.038zm108.188 23.828v-26.01c0-.814.741-1.089 1.08-1.089.156 0 .315.042.485.13 11.068 5.695 23.883 12.904 28.878 15.739.336.191.538.539.538.932v28.845c-10.52-6.972-20.889-13.181-30.981-18.547zM201.363 41.92c3.296-10.073 11.194-18.119 21.126-21.522C232.939 16.816 244.214 15 256 15c11.786 0 23.061 1.816 33.512 5.398 9.931 3.404 17.829 11.45 21.126 21.522l8.447 25.809c-11.678-3.403-24.53-6.03-38.579-7.476-16.227-1.67-32.508-1.556-48.738-.028l-.277.029c-14.048 1.446-26.899 4.072-38.577 7.475l8.449-25.809zm-85.086 105.776c2.329-14.358 9.957-27.105 21.481-35.892 27.553-21.009 60.46-32.542 94.661-36.566l.038-.004c15.57-1.796 31.509-1.66 47.086 0a.596.596 0 0 1 .042.004c34.077 3.65 67.31 15.709 94.66 36.566 11.522 8.787 19.15 21.533 21.479 35.892l15.343 94.58a519.824 519.824 0 0 0-21.899-16.693v-39.274a16.1 16.1 0 0 0-8.134-13.978c-5.076-2.88-18.104-10.209-29.418-16.031a15.923 15.923 0 0 0-7.348-1.792c-8.866 0-16.08 7.217-16.08 16.089v18.65c-8.094-3.733-16.329-7.057-24.62-9.808l-1.645-21.814c-.967-12.821-10.842-23.366-23.48-25.075-7.609-1.029-15.159-1.55-22.443-1.55-7.284 0-14.834.521-22.441 1.549-12.639 1.709-22.514 12.255-23.48 25.075l-1.644 21.813c-8.291 2.751-16.526 6.075-24.62 9.808v-18.65c0-8.872-7.213-16.089-16.08-16.089a15.92 15.92 0 0 0-7.348 1.792c-11.324 5.827-24.346 13.152-29.42 16.032a16.099 16.099 0 0 0-8.133 13.977v39.275a520.686 520.686 0 0 0-21.899 16.692l15.342-94.578zm52.538 22.9v26.01c-10.092 5.366-20.461 11.574-30.982 18.547v-28.845c0-.387.207-.744.538-.932 4.993-2.833 17.802-10.039 28.879-15.739.172-.089.327-.13.485-.13.338 0 1.08.274 1.08 1.089zM71.9 328.874a6.075 6.075 0 0 1-.083.069 223.59 223.59 0 0 1-1.812-21.289c-.399-11.198 4.167-22.037 12.53-29.74 38.812-35.749 83.883-70.241 135.031-85.705.045-.013.091-.017.136-.03 10.029-3.024 20.34-5.152 30.799-5.889v54.751c-21.143 1.172-41.84 7.005-61.384 14.941-28.581 11.608-55.237 27.77-80.247 45.722a574.565 574.565 0 0 0-34.26 26.578l-.71.592zm2.841 17.263c.104-.09.206-.179.311-.268 12.476-10.678 25.311-20.952 38.603-30.6 25.903-18.803 53.5-35.743 83.49-47.207 16.442-6.285 33.727-10.923 51.355-11.99v168.007c-.08-.007-.161-.011-.242-.018-8.513-.798-16.89-2.969-24.747-6.333l-.038-.015a96.489 96.489 0 0 0-38.474-7.952 96.484 96.484 0 0 0-38.473 7.952c-12.608 5.445-26.483 7.602-40.151 6.357-.373-.034-3.29-.106-3.443-.4-13.423-25.807-22.892-51.852-28.191-77.533zM497 497H15v-67.316a81.505 81.505 0 0 1 28-4.923c23.345 0 43.323 13.529 66.589 14.571l.217.008c14.621.591 29.224-2.052 42.667-7.856 20.616-8.902 44.441-8.901 65.054 0 24.376 10.526 52.577 10.523 76.946 0 .042-.018.085-.033.127-.051 20.6-8.854 44.2-8.854 64.8 0 .042.018.085.033.127.051 24.371 10.485 52.591 10.518 76.946 0 19.07-8.235 41.005-8.906 60.527-1.8V497z" fill="#5a5a5a"/></svg>